<?xml version="1.0" ?><svg xmlns="http://www.w3.org/2000/svg" xmlns:xlink="http://www.w3.org/1999/xlink" version="1.1" viewBox="0 0 512 512" style="enable-background:new 0 0 512 512;" xml:space="preserve"><style type="text/css">
	.st0{fill:#231A15;}
	.st1{fill:#FFE000;}
	.st2{fill:#BCA100;}
	.st3{fill:#FC0000;}
	.st4{fill:#AA0000;}
	.st5{fill:#F94343;}
	.st6{fill:#FFFFFF;}
	.st7{fill:#A58E07;}
	.st8{opacity:0.44;}
	.st9{fill:#756204;}
	.st10{opacity:0.64;}
	.st11{opacity:0.38;}
	.st12{fill:#5D5004;}
	.st13{fill:#B7A100;}
	.st14{fill:#1D4DFC;}
	.st15{fill:#143CAF;}
	.st16{opacity:0.59;}
	.st17{opacity:0.52;}
	.st18{fill:#FF7F1F;}
	.st19{fill:#C4570C;}
	.st20{fill:#B29904;}
	.st21{fill:#87720A;}
	.st22{fill:#DDDDDD;}
	.st23{opacity:0.51;}
	.st24{fill:#878787;}
	.st25{fill:#727272;}
	.st26{opacity:0.33;}
	.st27{opacity:0.46;}
	.st28{fill:#25CBF2;}
	.st29{fill:#0A8FA5;}
	.st30{opacity:0.58;}
	.st31{fill:#04889E;}
	.st32{fill:#035A63;}
	.st33{opacity:0.65;}
	.st34{opacity:0.39;}
	.st35{fill:#AB0000;}
	.st36{fill:#1987A1;}
	.st37{fill:#3F1F0A;}
	.st38{fill:#4DEEFF;}
	.st39{fill:#21B9C1;}
	.st40{fill:#BBF9FF;}
	.st41{fill:#64ACAF;}
	.st42{fill:#089FB7;}
	.st43{opacity:0.47;}
	.st44{opacity:0.42;}
	.st45{fill:#DBF7FC;}
	.st46{fill:#B2E7ED;}
	.st47{fill:#0FA2BA;}
	.st48{opacity:0.54;}
	.st49{fill:#8E7716;}
	.st50{fill:#191401;}
	.st51{fill:#382E02;}
	.st52{fill:#605106;}
	.st53{fill:#AFACA0;}
	.st54{fill:#BC0404;}
	.st55{fill:#750000;}
	.st56{fill:#A08B0D;}
	.st57{fill:#5B4C05;}
	.st58{opacity:0.4;}
	.st59{opacity:0.5;}
	.st60{fill:#FF8383;}
	.st61{fill:#FFF0A6;}
	.st62{fill:#E2C227;}
	.st63{fill:#AA9205;}
	.st64{fill:#FFEA71;}
	.st65{opacity:0.22;}
	.st66{fill:#B19B00;}
	.st67{fill:#1989A4;}
	.st68{fill:#13A0B7;}
	.st69{fill:#C4A805;}
	.st70{fill:#FFF3A9;}
	.st71{fill:#846E03;}
	.st72{fill:#2D2502;}
	.st73{opacity:0.36;}
	.st74{fill:#4DD307;}
	.st75{fill:#328402;}
	.st76{fill:#97FF5A;}
	.st77{fill:#7A6500;}
	.st78{fill:#246001;}
	.st79{fill:#359100;}
	.st80{fill:#968022;}
	.st81{fill:#4F420B;}
	.st82{fill:#FFED83;}
	.st83{fill:#BAA335;}
	.st84{fill:#8D0991;}
	.st85{fill:#4B044F;}
	.st86{fill:#CE15CE;}
	.st87{fill:#897502;}
	.st88{fill:#493D01;}
	.st89{fill:#C9C9C9;}
	.st90{fill:#2D280E;}
	.st91{fill:#378C06;}
	.st92{fill:#183A03;}
	.st93{fill:#94FF55;}
	.st94{fill:#2E7F04;}
	.st95{fill:#63AB39;}
	.st96{fill:#AA5F04;}
	.st97{fill:#633502;}
	.st98{fill:#EF9014;}
	.st99{fill:#A05A07;}
	.st100{fill:#05616B;}
	.st101{fill:#033335;}
	.st102{fill:#0E94AA;}
	.st103{fill:#035D66;}
	.st104{opacity:0.27;}
	.st105{opacity:0.43;}
	.st106{fill:#FFF203;}
	.st107{fill:#FFA300;}
	.st108{fill:#2B3030;}
	.st109{opacity:0.28;}
	.st110{fill:#FCD17A;}
	.st111{fill:#AF853A;}
	.st112{opacity:0.31;}
	.st113{fill:#B641FF;}
	.st114{fill:#700FBC;}
	.st115{fill:#F2D0B1;}
	.st116{fill:#AF835F;}
	.st117{fill:#C17540;}
	.st118{fill:#F2BA94;}
	.st119{fill:#592909;}
	.st120{fill:#2B1204;}
	.st121{fill:#894818;}
	.st122{fill:#512609;}
	.st123{fill:#FF7F15;}
	.st124{fill:#A04A0A;}
	.st125{fill:#B7865E;}
	.st126{fill:#70350E;}
	.st127{fill:#3A1805;}
	.st128{fill:#C1521B;}
	.st129{fill:#FFC7AE;}
	.st130{fill:#FF717F;}
	.st131{fill:#6E2F0F;}
	.st132{fill:#AC8675;}
	.st133{opacity:0.25;}
	.st134{opacity:0.32;}
	.st135{fill:#FFFCC5;}
	.st136{fill:#D1CA78;}
	.st137{fill:#D37733;}
	.st138{fill:#A04F18;}
	.st139{fill:#0ABFBA;}
	.st140{fill:#057F79;}
	.st141{fill:#15F9F9;}
	.st142{fill:#09B2AD;}
	.st143{fill:#B2B2B2;}
	.st144{fill:#FFF755;}
	.st145{fill:#BCB121;}
	.st146{fill:#F90368;}
	.st147{opacity:0.49;}
	.st148{fill:#B50857;}
	.st149{fill:#FF76B4;}
	.st150{fill:#F23091;}
	.st151{fill:#FFF800;}
	.st152{fill:#C9BF05;}
	.st153{fill:#FF8500;}
	.st154{fill:#A35507;}
	.st155{fill:#AA6E50;}
	.st156{fill:#723C25;}
	.st157{fill:#EAD4B9;}
	.st158{fill:#AA8D6F;}
	.st159{fill:#B7A8A5;}
	.st160{fill:#84726F;}
	.st161{fill:#77645F;}
	.st162{fill:#51403C;}
	.st163{fill:#EABBA7;}
	.st164{fill:#BC7F69;}
	.st165{fill:#7C5039;}
	.st166{fill:#442619;}
	.st167{fill:#B7AE04;}
	.st168{fill:#BAB108;}
	.st169{fill:#7A7105;}
	.st170{fill:#352B23;}
	.st171{fill:#050403;}
	.st172{fill:#706255;}
	.st173{fill:#44382E;}
	.st174{fill:#634319;}
	.st175{fill:#35210A;}
	.st176{fill:#2D1C08;}
	.st177{fill:#0A0601;}
	.st178{fill:#9E7443;}
	.st179{fill:#704D2A;}
	.st180{fill:#D8A73A;}
	.st181{fill:#A0741C;}
	.st182{fill:#3F2F28;}
	.st183{fill:#211410;}
	.st184{fill:#FF326C;}
	.st185{fill:#BC0749;}
	.st186{fill:#68390E;}
	.st187{fill:#A5632D;}
	.st188{fill:#3D1E05;}
	.st189{fill:#331A06;}
	.st190{fill:#110801;}
	.st191{fill:#160A02;}
	.st192{fill:#663514;}
	.st193{opacity:0.29;}
	.st194{fill:#FC001F;}
	.st195{fill:#AF021F;}
	.st196{fill:#C48622;}
	.st197{fill:#8C5910;}
	.st198{fill:#846D64;}
	.st199{fill:#513B35;}
	.st200{fill:#5B4842;}
	.st201{fill:#332522;}
	.st202{fill:#47332C;}
	.st203{fill:#543E38;}
	.st204{fill:#1E1412;}
	.st205{fill:#604C43;}
	.st206{fill:#D3896C;}
	.st207{fill:#FF001F;}
	.st208{fill:#AF0824;}
	.st209{fill:#A37462;}
	.st210{fill:#5E3E34;}
	.st211{fill:#874A38;}
	.st212{fill:#4C2218;}
	.st213{fill:#5B2B20;}
	.st214{fill:#210C09;}
	.st215{fill:#99001A;}
	.st216{fill:#A08A07;}
	.st217{fill:#A08904;}
	.st218{fill:#5B4C02;}
	.st219{fill:#CECAB7;}
	.st220{fill:#727068;}
	.st221{fill:#42403A;}
	.st222{fill:#B2B0A6;}
	.st223{fill:#726F62;}
	.st224{fill:#6B4F45;}
	.st225{fill:#3A261F;}
	.st226{fill:#777468;}
	.st227{fill:#474436;}
	.st228{fill:#B78B7D;}
	.st229{fill:#845A4E;}
	.st230{fill:#3A372D;}
	.st231{fill:#43CFFF;}
	.st232{fill:#13A0BC;}
</style><g id="_x35_7"><g><path class="st0" d="M267.25,498.59h-22.5c-0.15,0-0.29,0-0.44-0.01c-0.84-0.04-1.69-0.09-2.54-0.16l-0.76-0.07    c-0.63-0.06-1.24-0.12-1.84-0.19c-0.26-0.03-0.54-0.06-0.83-0.1c-0.66-0.08-1.3-0.17-1.95-0.27l-0.62-0.09    c-0.82-0.13-1.66-0.27-2.49-0.42l-0.69-0.14c-0.62-0.12-1.23-0.24-1.85-0.38l-0.94-0.21c-0.54-0.12-1.1-0.25-1.66-0.39l-0.89-0.22    c-0.73-0.18-1.47-0.38-2.2-0.58l-0.67-0.19c-0.7-0.2-1.38-0.4-2.06-0.6l-1-0.31c-0.5-0.16-1-0.31-1.5-0.48l-1.07-0.36    c-0.5-0.17-1-0.34-1.49-0.52l-1-0.35c-0.77-0.28-1.52-0.56-2.27-0.84c-0.31-0.12-0.64-0.25-0.96-0.38l-0.24-0.09    c-0.4-0.16-0.81-0.32-1.22-0.49c-0.43-0.17-0.87-0.35-1.3-0.54c-0.35-0.14-0.72-0.3-1.09-0.46c-0.44-0.19-0.9-0.38-1.35-0.58    l-0.89-0.39c-0.96-0.43-1.95-0.87-2.93-1.33l-0.62-0.29c-0.53-0.25-1.07-0.51-1.61-0.77l-0.68-0.33    c-0.56-0.27-1.11-0.55-1.67-0.83l-0.38-0.19c-1.99-1-3.95-2.04-5.86-3.09c0,0-0.09-0.05-0.09-0.05c-0.66-0.36-1.32-0.73-1.98-1.1    c-0.02-0.01-0.03-0.02-0.05-0.03c-23.59-13.28-45.48-31.4-59.72-44.31c-6.67-5.62-11.52-10.23-14.44-13.72l-0.72-0.73    c-1.81-1.81-2.69-4.01-3.3-5.94c-0.1-0.29-0.18-0.58-0.26-0.85c-2.37-8.18-6.38-32.4-11.93-72c-1.54-9.7-2.89-18.23-3.78-23.85    c-0.67-0.22-1.29-0.45-1.88-0.69c-0.05-0.02-0.1-0.04-0.15-0.06c-0.04-0.02-0.09-0.04-0.14-0.06c-0.67-0.28-1.29-0.57-1.93-0.91    l-0.39-0.2c-0.8-0.43-1.48-0.82-2.14-1.24c-0.06-0.04-0.12-0.08-0.19-0.12c-0.59-0.38-1.18-0.79-1.8-1.26l-0.38-0.29    c-0.62-0.47-1.25-1-1.83-1.52c-0.03-0.03-0.06-0.05-0.09-0.08c-0.52-0.47-1.09-1.02-1.68-1.63c-0.03-0.03-0.06-0.06-0.09-0.09    c-0.04-0.04-0.1-0.1-0.14-0.14c-0.58-0.61-1.14-1.24-1.65-1.86c-0.01-0.02-0.03-0.04-0.05-0.06c-0.5-0.61-1-1.25-1.5-1.95    l-0.11-0.15c-0.99-1.39-1.9-2.87-2.72-4.4c-0.02-0.03-0.04-0.07-0.05-0.1c-0.81-1.51-1.54-3.12-2.17-4.77    c-0.02-0.04-0.03-0.09-0.05-0.13c-0.32-0.85-0.62-1.71-0.89-2.57c-1.43-4.59-2.16-9.41-2.16-14.35c0-2.46,0.18-4.92,0.54-7.33    c0.86-8.81,3.91-15.88,9.07-21.04c2.78-3.38,6.01-6.11,9.56-8.07c4.92-28.19,19.6-54,42.71-74.97    c22.45-20.37,50.85-34.34,82.52-40.67c0.07-0.45,0.15-0.92,0.24-1.39c0-0.01,0-0.02,0.01-0.04l0,0c0.13-0.68,0.29-1.38,0.48-2.08    c0.01-0.03,0.02-0.06,0.02-0.09c1.13-4.26,3.05-8.21,5.64-11.68c-2.78-6.68-4.92-15.89-4.19-27.94c0-0.01,0-0.01,0-0.02    c0.05-0.85,0.12-1.72,0.2-2.6c0.43-4.61,1.27-9.43,2.5-14.35c0.12-0.6,0.28-1.22,0.48-1.89c0.34-1.25,0.7-2.5,1.07-3.72    c4.59-15.01,11.94-26.93,21.86-35.45c3.32-2.99,6.85-5.41,10.49-7.18c0.04-0.02,0.09-0.04,0.14-0.07    c13.75-7.26,30.2-8.74,47.59-4.3c0.37,0.09,0.77,0.2,1.17,0.3c0.4,0.11,0.81,0.22,1.22,0.34c0.93,0.27,1.85,0.54,2.77,0.83    c0.01,0,0.01,0,0.02,0.01c13.26,4.24,23.06,10.88,31.72,16.74c7.35,4.98,13.7,9.27,20.09,10.51c1.49,0.29,2.96,0.41,4.46,0.38    c1.65-0.04,3.32-0.27,5.1-0.7c1.29-0.31,2.65-0.74,4.04-1.26c3.72-1.41,7.92-0.47,10.69,2.37c2.78,2.85,3.6,7.06,2.1,10.75    c-0.19,0.48-1.28,3.05-3.43,6.38c-0.52,0.81-1.12,1.68-1.79,2.59c1.4-0.55,2.78-1.26,4.12-2.13c2.98-1.95,6.78-2.17,9.96-0.57    c3.19,1.6,5.28,4.77,5.49,8.33c0.39,6.46-2.43,16.89-12.93,23.99c4.24,3.6,8.35,8.16,11.62,13.87    c11.96,20.89,0.83,44.87,0.36,45.88c-1.84,3.89-5.89,6.47-10.17,5.96c-4.22-0.51-7.57-3.32-8.48-7.45    c-0.04-0.1-0.11-0.25-0.2-0.45c-0.07-0.15-0.15-0.3-0.24-0.46c-0.17-0.32-0.36-0.63-0.57-0.93c-0.15-0.22-0.32-0.47-0.51-0.72    c-0.1-0.14-0.2-0.26-0.29-0.38c-0.6-0.76-1.29-1.49-2.04-2.19c-0.53-0.49-1.1-0.97-1.7-1.42c-1.1-0.84-2.33-1.62-3.66-2.33    c0.16,0.78,0.29,1.57,0.4,2.38c0.37,2.72,0.48,5.64,0.31,8.67c-0.18,3.31-1.93,6.3-4.56,8.04c11.73,9.39,21.87,20.23,29.94,32.15    l0.32,0.49c0.78,1.17,1.51,2.3,2.23,3.43l0.39,0.62c1.61,2.59,3.14,5.26,4.55,7.94l0.41,0.79c0.61,1.18,1.21,2.37,1.78,3.57    l0.24,0.49c0.67,1.42,1.31,2.82,1.9,4.19l0.23,0.54c0.52,1.22,1.01,2.42,1.48,3.63l0.37,0.96c0.56,1.47,1.05,2.81,1.48,4.08    c0.01,0.03,0.02,0.06,0.03,0.09l0,0c0.45,1.31,0.89,2.72,1.37,4.29l0.28,0.97c0.34,1.17,0.66,2.33,0.96,3.49l0.26,1    c0.39,1.54,0.72,2.97,1.01,4.35l0.08,0.42c0,0.01,0.02,0.1,0.02,0.11c0.19,0.94,0.37,1.87,0.54,2.81    c0.16,0.08,0.32,0.16,0.48,0.24l0.24,0.12c1.55,0.8,3.09,1.78,4.55,2.9c0.03,0.03,0.07,0.05,0.09,0.07    c0.77,0.6,1.46,1.18,2.14,1.8l0.16,0.15c1.3,1.2,2.53,2.53,3.67,3.95l0.17,0.22c0.54,0.69,1.07,1.41,1.56,2.14l0.14,0.21    c0.5,0.75,0.95,1.46,1.36,2.18c0.03,0.04,0.05,0.09,0.08,0.13c0.42,0.72,0.82,1.49,1.24,2.34l0.19,0.4    c0.39,0.8,0.73,1.58,1.05,2.37c0.04,0.11,0.09,0.22,0.13,0.33c0.3,0.75,0.59,1.54,0.86,2.34l0.09,0.26    c0.28,0.85,0.52,1.68,0.76,2.57l0.12,0.46c0.25,0.98,0.44,1.84,0.61,2.67c0.01,0.07,0.04,0.21,0.05,0.3    c0.15,0.77,0.28,1.61,0.39,2.48l0.06,0.42c0.12,0.94,0.2,1.84,0.26,2.75l0.03,0.59c0.06,0.99,0.09,1.92,0.09,2.79    c0,5.1-0.77,10.07-2.29,14.77c-0.37,1.15-0.79,2.29-1.25,3.39c-2.84,6.86-7.23,12.54-12.67,16.41c-1.94,1.38-4,2.52-6.14,3.39    c-0.77,0.31-1.55,0.59-2.35,0.84c-0.39,2.93-0.85,6.28-1.34,9.92l-0.59,4.29c-0.4,2.93-0.83,6.02-1.28,9.2    c-0.56,3.98-1.14,8.11-1.74,12.29l-0.73,5.04c-1.8,12.37-3.43,22.94-4.83,31.41c-0.24,1.45-0.48,2.87-0.71,4.23    c-0.74,4.28-1.42,7.99-2.03,11.03c-0.44,2.21-0.86,4.12-1.24,5.69c-0.11,0.44-0.21,0.84-0.31,1.22c-0.22,0.85-0.43,1.59-0.64,2.23    c-0.6,1.88-1.45,4.06-3.28,5.89l-0.35,0.35c-0.38,0.38-0.95,0.96-1.71,1.7c-0.42,0.42-0.9,0.89-1.43,1.41    c-0.8,0.78-1.72,1.67-2.75,2.67c-1.38,1.32-2.95,2.81-4.71,4.45c-1.92,1.79-3.87,3.57-5.79,5.29c-3.43,3.08-6.96,6.15-10.48,9.11    c-2.66,2.24-5.36,4.46-8.03,6.58c-1.4,1.12-2.83,2.25-4.29,3.38c-2.23,1.73-4.5,3.45-6.73,5.1c-1.54,1.13-3.09,2.27-4.67,3.39    c-10.52,7.5-20.75,13.83-30.39,18.81c-1.79,0.93-3.59,1.82-5.36,2.66c-15.08,7.18-29.03,11.09-41.46,11.64    C267.54,498.59,267.4,498.59,267.25,498.59z M244.98,478.59h22.04c9.7-0.46,20.98-3.73,33.54-9.71c1.57-0.75,3.17-1.54,4.77-2.37    c8.8-4.55,18.21-10.38,27.96-17.33c1.48-1.06,2.95-2.12,4.39-3.19c2.11-1.56,4.24-3.18,6.36-4.82c1.38-1.07,2.74-2.14,4.06-3.2    c2.54-2.03,5.11-4.13,7.64-6.26c3.36-2.83,6.72-5.75,10-8.69c1.84-1.65,3.7-3.35,5.53-5.05c1.67-1.56,3.17-2.98,4.48-4.24    c0.98-0.94,1.85-1.78,2.6-2.52c0.51-0.5,0.96-0.94,1.36-1.33c0.21-0.2,0.4-0.4,0.58-0.57c0.04-0.14,0.08-0.29,0.12-0.45    c0.07-0.28,0.15-0.58,0.22-0.89c0.32-1.3,0.68-2.95,1.07-4.9c0.57-2.85,1.22-6.38,1.92-10.48c0.23-1.33,0.46-2.71,0.7-4.13    c1.38-8.34,2.99-18.77,4.77-31.02l0.72-5.01c0.6-4.15,1.18-8.26,1.73-12.22c0.44-3.16,0.87-6.23,1.27-9.16l0.58-4.27    c0.99-7.25,1.8-13.31,2.33-17.3c0.68-5.1,5.12-8.87,10.26-8.68l0.39,0.02c0.66-0.01,1.32-0.1,1.97-0.27    c0.34-0.09,0.68-0.21,1.01-0.34c0.71-0.29,1.41-0.68,2.09-1.16c2.35-1.67,4.41-4.44,5.8-7.78c0.25-0.6,0.48-1.23,0.69-1.87    c0.88-2.71,1.32-5.61,1.32-8.63c0-0.57-0.02-1.13-0.06-1.69l-0.02-0.36c-0.04-0.52-0.08-1.05-0.15-1.58l-0.04-0.24    c-0.07-0.54-0.15-1.03-0.24-1.52c-0.01-0.05-0.03-0.16-0.04-0.24c-0.08-0.43-0.2-0.92-0.32-1.4l-0.07-0.27    c-0.14-0.51-0.27-0.99-0.43-1.46l-0.05-0.15c-0.15-0.46-0.32-0.9-0.49-1.33c-0.01-0.03-0.04-0.11-0.06-0.16    c-0.18-0.43-0.37-0.86-0.57-1.27l-0.09-0.19c-0.2-0.4-0.4-0.79-0.61-1.16c-0.02-0.03-0.04-0.06-0.05-0.09    c-0.23-0.39-0.47-0.77-0.71-1.14c-0.01-0.02-0.06-0.09-0.08-0.12c-0.26-0.37-0.49-0.69-0.73-1c-0.01-0.01-0.07-0.09-0.08-0.1    c-0.52-0.65-1.06-1.24-1.62-1.75c-0.03-0.03-0.06-0.05-0.09-0.08c-0.24-0.22-0.5-0.44-0.75-0.64c-0.02-0.02-0.04-0.03-0.05-0.04    c-0.58-0.45-1.14-0.81-1.71-1.1c-0.35-0.18-0.63-0.31-0.89-0.41c-0.48-0.19-0.97-0.33-1.45-0.43c-4.21-0.81-7.44-4.23-8.01-8.48    l-0.04-0.26c-0.13-1.03-0.28-2.05-0.45-3.06l-0.17-1.03c-0.18-1.06-0.39-2.14-0.61-3.21l-0.07-0.37c-0.25-1.2-0.53-2.39-0.85-3.7    l-0.21-0.83c-0.25-0.97-0.52-1.94-0.8-2.91l-0.24-0.82c-0.4-1.34-0.77-2.51-1.14-3.58c-0.02-0.04-0.03-0.09-0.04-0.13    c-0.34-0.99-0.75-2.13-1.23-3.4l-0.31-0.81c-0.39-1.01-0.81-2.02-1.23-3.03l-0.2-0.47c-0.5-1.16-1.03-2.34-1.59-3.51l-0.2-0.4    c-0.5-1.05-1.01-2.05-1.52-3.05l-0.34-0.66c-1.2-2.28-2.5-4.54-3.85-6.73l-0.34-0.55c-0.61-0.96-1.23-1.93-1.87-2.88l-0.31-0.46    c-15.51-22.91-40.05-41.29-69.08-51.72c-3.24-1.16-5.65-3.91-6.39-7.28s0.31-6.87,2.77-9.28c0.26-0.25,0.52-0.51,0.8-0.76    c1.03-0.95,2.08-1.83,3.15-2.63c6.42-4.84,13.91-7.4,21.66-7.4c0,0,0,0,0,0c2.17,0,4.39,0.2,6.6,0.59    c1.64,0.29,3.25,0.67,4.82,1.12c0.33-0.54,0.7-1.05,1.1-1.55c0.45-0.55,1.43-1.63,3.03-2.75c0.39-0.27,0.81-0.55,1.29-0.83    c3.15-1.84,6.95-2.85,11.02-2.91c0.42-0.01,0.85,0,1.28,0.01c4.49,0.14,9.37,1.37,14.51,3.67c1.05,0.47,2.09,0.98,3.1,1.51    c1.33,0.7,2.62,1.46,3.84,2.25c-0.21-3.36-1.02-6.83-2.85-10.02c-7.2-12.58-21.77-16.61-21.91-16.65    c-4.76-1.22-7.92-5.71-7.47-10.6c0.24-2.56,1.42-4.83,3.2-6.46c-7.14-1.89-11.96-4.41-12.43-4.66c-4.17-2.23-6.21-7.09-4.88-11.63    c1.14-3.9,4.5-6.65,8.42-7.12c-6.44-2.71-12.27-6.66-18.32-10.75c-7.91-5.35-16.09-10.89-26.62-14.26c0,0-0.01,0-0.01,0l0,0    c-0.71-0.23-1.42-0.44-2.13-0.64c-0.31-0.09-0.63-0.18-0.96-0.26c-0.31-0.08-0.61-0.16-0.91-0.23    c-12.61-3.22-24.18-2.29-33.5,2.69c-0.11,0.06-0.23,0.12-0.35,0.18c-0.09,0.04-0.18,0.08-0.27,0.12    c-1.99,0.99-3.95,2.36-5.87,4.09c-0.07,0.06-0.14,0.13-0.22,0.19c-7.03,6.01-12.36,14.82-15.83,26.18    c-0.33,1.1-0.64,2.17-0.92,3.23c-0.02,0.07-0.04,0.14-0.06,0.21c-0.03,0.16-0.07,0.32-0.11,0.47c-1.09,4.18-1.82,8.24-2.17,12.06    c-0.06,0.67-0.11,1.33-0.15,1.97c0,0.01,0,0.02,0,0.04c-0.74,12.35,2.67,19.74,4.77,23.04c2.71,4.27,1.81,9.89-2.09,13.09    c-2.34,1.92-3.99,4.48-4.77,7.38c0,0.01-0.01,0.03-0.01,0.04c-0.07,0.26-0.13,0.53-0.19,0.8c0,0.02-0.01,0.04-0.01,0.07    c-0.05,0.27-0.1,0.54-0.13,0.81l-0.02,0.13c0,0.01-0.01,0.1-0.01,0.11c-0.02,0.19-0.05,0.42-0.06,0.65l-0.02,0.29    c-0.01,0.22-0.03,0.51-0.03,0.81c0,0.6,0.04,1.21,0.13,1.87c0.7,5.37-3.01,10.33-8.36,11.17l-0.67,0.11    c-62.3,9.92-110.38,53.31-116.95,105.52c-0.5,4.01-3.38,7.33-7.28,8.4c-2.14,0.59-4.22,2.09-6.01,4.35    c-0.29,0.37-0.61,0.72-0.95,1.04c-1.92,1.82-3.09,4.92-3.48,9.2c-0.02,0.22-0.05,0.43-0.08,0.65c-0.23,1.48-0.35,3.01-0.35,4.54    c0,2.91,0.42,5.73,1.25,8.39c0.15,0.47,0.31,0.93,0.48,1.39c0.01,0.02,0.02,0.04,0.03,0.07l0,0c0.35,0.91,0.74,1.78,1.18,2.6    c0,0.01,0.01,0.03,0.03,0.05l0,0c0.42,0.78,0.88,1.53,1.37,2.21c0.01,0.02,0.05,0.06,0.06,0.08c0.23,0.32,0.47,0.63,0.71,0.93    c0.01,0.01,0.01,0.02,0.02,0.03c0.23,0.28,0.47,0.54,0.71,0.8l0.11,0.11c0.24,0.24,0.48,0.48,0.72,0.7    c0.03,0.02,0.05,0.05,0.08,0.07c0.19,0.17,0.44,0.37,0.69,0.57c0.01,0.01,0.15,0.11,0.16,0.12c0.2,0.15,0.43,0.32,0.67,0.47    c0.04,0.03,0.08,0.05,0.12,0.08c0.21,0.13,0.42,0.25,0.64,0.37l0.11,0.05c0.27,0.14,0.49,0.25,0.72,0.34    c0.03,0.01,0.07,0.03,0.11,0.05c0.2,0.08,0.4,0.15,0.61,0.21l0.16,0.05c0.22,0.06,0.43,0.12,0.66,0.17    c0.03,0.01,0.07,0.01,0.1,0.02c0.16,0.03,0.36,0.06,0.6,0.08l0.19,0.02c0.25,0.02,0.46,0.04,0.61,0.04l0.39-0.02    c5.18-0.16,9.59,3.58,10.26,8.69l0.25,1.9c0.15,1.11,0.11,2.22-0.11,3.29c0.87,5.53,2.34,14.82,4.04,25.52    c0.01,0.06,0.02,0.12,0.03,0.18c6.91,49.36,9.98,64.39,11.24,68.94c0.12,0.13,0.24,0.27,0.35,0.41c1.18,1.46,4.35,4.9,12.29,11.58    c0.09,0.08,0.19,0.16,0.28,0.24c13.48,12.22,34.18,29.4,56.22,41.81c0.01,0,0.02,0.01,0.02,0.01c0.01,0,0.01,0.01,0.02,0.01    c0.6,0.33,1.19,0.67,1.79,0.99c0.01,0.01,0.03,0.01,0.03,0.02c1.8,0.98,3.56,1.91,5.31,2.8l0.35,0.18c0.51,0.25,1,0.5,1.5,0.74    l0.61,0.3c0.48,0.23,0.95,0.46,1.42,0.68l0.55,0.25c0.86,0.4,1.72,0.79,2.57,1.17l0.77,0.34c0.37,0.16,0.77,0.33,1.17,0.5    l0.93,0.39c0.39,0.16,0.76,0.32,1.14,0.47c0.36,0.14,0.71,0.28,1.06,0.42l0.27,0.11c0.25,0.1,0.5,0.2,0.74,0.29    c0.66,0.25,1.3,0.49,1.94,0.72l0.85,0.3c0.43,0.15,0.84,0.3,1.26,0.44l0.91,0.3c0.4,0.13,0.82,0.26,1.23,0.39l0.83,0.26    c0.55,0.17,1.11,0.33,1.66,0.49l0.56,0.16c0.59,0.16,1.19,0.32,1.79,0.47l0.72,0.18c0.42,0.1,0.88,0.21,1.34,0.31l0.73,0.16    c0.47,0.1,0.96,0.2,1.44,0.29l0.55,0.11c0.62,0.11,1.26,0.23,1.91,0.33l0.51,0.07c0.46,0.07,0.95,0.13,1.44,0.2l0.61,0.07    c0.48,0.05,0.93,0.1,1.37,0.14l0.56,0.05C243.88,478.53,244.43,478.57,244.98,478.59z M130.32,407.91l0.02,0.03    C130.34,407.93,130.33,407.92,130.32,407.91z M406.41,300.84L406.41,300.84L406.41,300.84z M381.82,152.86L381.82,152.86    C381.82,152.86,381.82,152.86,381.82,152.86z"/></g><g><g><g><path class="st194" d="M238.96,119.36c0,0-17.36-15.68-5.79-53.53s41.14-49,72.64-38.93s43.07,36.43,72,25.5      c0,0-8.36,20.57-28.93,18.96c0,0,23.43,12.53,42.57,0c0,0,1.14,18.89-28.11,20.85c0,0,18.6,4.77,28.11,21.37s0,36.62,0,36.62      s-2.71-9.94-16.86-16.27c-14.14-6.33-19.29,0-19.29,0s8.9,4.38,8.04,20.67c0,0-5.46-13.5-23.46-16.71      c-18-3.21-27.45,12.31-27.45,12.31l-37.04-4.57l-16.74-4.4"/></g><g><path class="st195" d="M391.46,113.6c-9.5-16.6-28.11-21.37-28.11-21.37c29.25-1.97,28.11-20.85,28.11-20.85      c-19.14,12.53-42.57,0-42.57,0c20.57,1.61,28.93-18.96,28.93-18.96c-28.93,10.93-40.5-15.43-72-25.5      c-2.6-0.83-5.18-1.5-7.74-2.04c3.53,4.07,13.94,15.61,24.13,22.4c12.54,8.36,17.68,11.57,17.68,11.57s-10.93,2.57-17.68,0      s-2.89,5.14,11.25,13.5c14.14,8.36,21.86,11.74,21.86,11.74s-12.21,2.95-16.07,4.93c-3.86,1.98,10.93,0.69,16.07,12.9      c5.14,12.21,8.04,17.45,8.04,17.45s-17.04-7.16-29.89-9.73c-12.86-2.57-11.25,3.97-11.25,3.97l17.04,14.67      c0,0-20.57,0.64-34.07,0c-13.5-0.64-26.76-8.77-29.77-14.67s2.13-20.04,8.56-21.33c6.43-1.29,5.14-3.31,0-3.26      c-5.14,0.05-14.79,11.62-20.57,5.83c-5.79-5.79,1.93-16.52,7.07-18.87c5.14-2.35,9.64-10.14,9.64-10.14s-4.76-8.44-18.77,0      s-10.16-5.06-5.98-12.78S256,40.84,256,40.84s-19.61,15.62-20.25,35.13c-0.27,8.05-3.15,9.49-6.23,7.83      c-2.32,24.91,9.45,35.56,9.45,35.56l19.71,21.9l16.74,4.4l37.04,4.57c0,0,9.45-15.52,27.45-12.31s23.46,16.71,23.46,16.71      c0.87-16.29-8.04-20.67-8.04-20.67s5.14-6.33,19.29,0c14.14,6.33,16.86,16.27,16.86,16.27S400.96,130.2,391.46,113.6z"/></g></g><g><g><circle class="st196" cx="251.08" cy="133.96" r="24.33"/></g><g><path class="st197" d="M260.91,111.7c-0.02,2.89-0.68,5.92-2.17,8.03c-3.66,5.2-8.09,9.49-14.49,11.01      c-5.75,1.37-11.84,0.18-16.68-3.06c-0.53,2-0.82,4.1-0.82,6.27c0,13.44,10.89,24.33,24.33,24.33      c13.44,0,24.33-10.89,24.33-24.33C275.41,124.02,269.45,115.48,260.91,111.7z"/></g></g><g><g><ellipse class="st198" cx="255.36" cy="265.2" rx="155.25" ry="130.26"/></g><g><path class="st199" d="M383.48,196.59c-7.96-1.7-15.96-3.15-24-4.38c-33.7-3.94-67.79-3.93-101.48,0.01      c-28.28,4.32-55.87,11.63-82.45,22.22c-14.63,6.53-28.76,14.12-41.81,23.41c-6.38,5.36-12.33,11.16-17.73,17.53      c-4.18,4.92-9.78,8.37-15.88,10.66c0.54,71.55,69.83,129.42,155.24,129.42c85.74,0,155.25-58.32,155.25-130.26      c0-24.84-8.29-48.06-22.68-67.82C386.44,197.16,384.96,196.9,383.48,196.59z"/></g></g><g><g><path class="st200" d="M283.96,137.15c-9.27-1.45-18.83-2.22-28.61-2.22c-11.36,0-22.44,1.03-33.11,2.98v254.56      c10.67,1.94,21.74,2.98,33.11,2.98c9.77,0,19.33-0.77,28.61-2.22V137.15z"/></g><g><path class="st201" d="M266.71,135.29c0.19,2.56,0.27,5.13,0.17,7.73c-0.73,19.12-5.9,40.72-21.02,53.87      c-7.29,6.34-14.93,10.6-23.61,12.75v182.85c10.67,1.94,21.74,2.98,33.11,2.98c9.77,0,19.33-0.77,28.61-2.22V137.15      C278.31,136.27,272.55,135.64,266.71,135.29z"/></g></g><g><g><path class="st198" d="M105.69,305.7c0,0,13.7,105.43,17.56,109.29c3.86,3.86,70.07,71.36,121.5,73.61h22.5      c51.43-2.25,117.64-69.75,121.5-73.61s17.56-109.29,17.56-109.29"/></g><g><path class="st202" d="M163.92,316.5c-1.38-3.8-2.96-7.41-4.85-10.8h127.56c-0.3,2.35-0.35,4.72-0.09,7.07      c0.56,4.95,0.73,9.9,0.48,14.85c-0.37,1.67-0.81,3.33-1.28,4.97c-5.75,6.13-11.83,11.91-18.28,17.28      c-7.49,5.34-15.37,10.07-23.65,14.07c-6.41,2.34-12.96,4.18-19.66,5.48c-4.84,0.36-9.7,0.43-14.54,0.16      c-2.77-0.6-5.5-1.34-8.2-2.22c-2.8-1.46-5.51-3.06-8.13-4.8c-3.89-3.46-7.52-7.19-10.91-11.14      c-6.24-8.95-11.49-18.52-16.02-28.45C165.52,320.83,164.71,318.67,163.92,316.5z M383.86,305.7c0.34,2.3,0.47,4.66,0.38,7.07      c2.8,24.78-3.61,49.95-14.89,71.91c-4.92,9.58-11.85,18.29-18.75,26.45c-4.62,5.47-9.85,10.32-15.45,14.76      c-8.89,7.05-17.76,13.86-27.8,19.17c-10.09,5.33-20.77,9.8-31.58,13.46c-17.65,5.97-36.96,8.89-55.53,9.14      c-12.37,0.17-25.25-0.92-37.6-3.69c19.92,13.02,42.13,23.74,62.11,24.62h22.5c51.43-2.25,117.64-69.75,121.5-73.61      c3.86-3.86,17.56-109.29,17.56-109.29H383.86z"/></g></g><g><g><path class="st198" d="M267.25,211.2c36.64,3.21,128.57,50.79,127.93,52.07l-3.72,19.29L290.39,314.7      c-31.79,10.11-68.79,0-68.79,0l-101.07-32.14l-3.72-19.29c-0.64-1.29,91.29-48.86,127.93-52.07H267.25z"/></g><g><path class="st202" d="M371.39,250.39c-16.75,9.09-34.51,16.68-52.56,22.71c-13.98,4.67-28.37,8.14-42.96,10.25      c-18.32,2.65-36.53,4.75-55.06,3.81c-18.22-0.93-36.64-3.32-53.93-9.31c-13.56-4.7-26.64-10.71-40.54-14.39      c-2.22-0.59-4.36-1.35-6.41-2.25c-2.07,1.19-3.18,1.93-3.11,2.07l3.72,19.29l101.07,32.14c0,0,37,10.11,68.79,0l101.07-32.14      l3.72-19.29C395.39,262.85,385.75,257.51,371.39,250.39z"/></g></g><g><g><path class="st203" d="M353.74,284.13c-2.45,5.84-8.73,9.5-15.14,10.13c-17.39,1.71-35.27,4.72-53.24,8.23      c-0.01,8.71-7.95,15.15-16.19,15.55c-16.63,0.81-33.78-1.48-49.91-5.4c-16.63-4.05-33.8-10.6-46.42-22.55l-46.98,1.46      l15.37,84.86l28.29,23.79l90.64,36.64l110.57-54l20.71-100.29L353.74,284.13z"/></g><g><path class="st204" d="M197.97,373.08c9.11,3.49,18.44,6.27,28.02,8.09c7.87,0.62,15.74,0.56,23.6-0.12      c14.29-2.59,28.13-6.98,41.62-12.35c30.71-13.32,60.92-27.73,91.15-42.1l9.1-44.05l-37.72,1.58c-2.45,5.84-8.73,9.5-15.14,10.13      c-17.39,1.71-35.27,4.72-53.24,8.23c-0.01,8.71-7.95,15.15-16.19,15.55c-16.63,0.81-33.78-1.48-49.91-5.4      c-16.63-4.05-33.8-10.6-46.42-22.55l-46.98,1.46l8.23,45.43C155.12,349.52,175.71,362.86,197.97,373.08z"/></g></g><g><g><path class="st198" d="M389.39,273.56c0,0-88.3,25.8-121.4,35.71l0,0l-12,1.58l-12-1.58l0,0c-33.1-9.91-121.4-35.71-121.4-35.71      l-5.79,25.16c0,0,19.29,80.27,20.57,84.77c1.29,4.5,4.5,10.93,35.36,28.5c24.44,13.92,58.16,27.43,71.12,32.45      c0.99,0.87,1.94,1.58,2.81,2.05c6.34,3.43,16.07,0,16.07,0s45.64-16.93,76.5-34.5c30.86-17.57,34.07-24,35.36-28.5      s20.57-84.77,20.57-84.77L389.39,273.56z M146.7,378.34l-12.53-79.63l19.93,7.63l9,81L146.7,378.34z M210.04,408.99l-31.5-15.86      l-9-82.29l40.5,11.57V408.99z M282.04,411.99L256,422.39l-26.04-10.41l-3.21-87l19.3,7.09l0.63,1.18l9.32,2.66l6.75-2.66      l22.5-8.26L282.04,411.99z M333.46,393.13l-31.5,15.86v-86.57l40.5-11.57L333.46,393.13z M365.29,378.34l-16.4,9l9-81      l19.93-7.63L365.29,378.34z"/></g><g><path class="st202" d="M394.63,296.32c-2.59,20.06-8.8,38.76-16.63,57.72c-0.66,2.35-1.49,4.6-2.45,6.78      c-2.25,6.12-5.71,11.51-10.04,16.18l-0.21,1.34l-2.46,1.35c-2.63,2.48-5.5,4.73-8.57,6.75c-22.96,15.13-46.65,29.3-73.08,37.62      c-19.19,6.04-38.67,6.91-58.35,3.24c-7.3-1.36-14.62-4.2-21.24-7.8c-9.33-3.95-18.24-8.97-26.53-14.8      c-3.04-1.85-6-3.83-8.89-5.93c-3.79-2.23-7.47-4.61-11.01-7.19c-3.67-2.17-6.97-4.72-9.89-7.64c-3.33-2.55-6.59-5.21-9.77-7.97      c1,4.05,1.68,6.78,1.89,7.51c1.29,4.5,4.5,10.93,35.36,28.5c24.44,13.92,58.16,27.43,71.12,32.45c0.99,0.87,1.94,1.58,2.81,2.05      c6.34,3.43,16.07,0,16.07,0s45.64-16.93,76.5-34.5c30.86-17.57,34.07-24,35.36-28.5s20.57-84.77,20.57-84.77L394.63,296.32z"/></g></g><g><g><path class="st205" d="M128.63,280.79c0,16.6-10.27,30.05-22.94,30.05s-22.94-13.46-22.94-30.05c0-16.6,10.27-30.05,22.94-30.05      S128.63,264.19,128.63,280.79z M383.36,280.79c0,16.6,10.27,30.05,22.94,30.05c12.67,0,22.94-13.46,22.94-30.05      c0-16.6-10.27-30.05-22.94-30.05C393.64,250.74,383.36,264.19,383.36,280.79z"/></g><g><path class="st201" d="M128.63,280.79c0,16.6-10.27,30.05-22.94,30.05c-9.6,0-17.82-7.72-21.24-18.68      c4.69,3.47,10.8,4.82,16.69,3.45c6.68-1.55,11.82-6.16,15.23-11.97c4.44-7.56,6.12-17.77,3.55-26.42      C125.23,262.73,128.63,271.23,128.63,280.79z M412.93,252.01c1.25,1.56,2.22,3.34,2.81,5.26c2.36,7.67,2.84,16.78,1.31,24.66      c-2.27,11.68-13.51,20.16-25.47,16.67c-1.84-0.54-3.47-1.33-4.93-2.29c4.02,8.71,11.31,14.54,19.65,14.54      c12.67,0,22.94-13.46,22.94-30.05C429.25,267.21,422.37,255.74,412.93,252.01z"/></g></g><g><g class="st43"><path class="st6" d="M388.62,296.32c0,0-11.42-18.62,0.25-35.05c11.67-16.43,25.62-6.93,25.62-6.93s-16.25-4.69-23.03,13.64      S388.62,296.32,388.62,296.32z M91.11,265.37c8.06-14.21,24.9-9.99,24.9-9.99s-14.56-7.31-26.23,3.78      c-11.67,11.09-4.63,35-4.63,35S83.05,279.58,91.11,265.37z M247.54,315.56c11.14,5.14,7.79,16.53,7.79,16.53      s-0.5-10.95,6.78-15.67c7.29-4.71,117.43-35.62,117.43-35.62S268,309.27,255.36,310.84s-124.24-34.8-124.24-34.8      S236.39,310.41,247.54,315.56z M105.69,310.84c0,0,14.68,93.49,16.59,101.85c1.92,8.36,56.74,48.89,60.35,47.29      s-43.96-39-51.52-51c-7.56-12-16.42-100.55-16.42-100.55C105.92,317.1,105.69,310.84,105.69,310.84z M154.34,308.44l8.77,78.91      l4.29,2.79l-8.32-81.69 M210.04,324.99v84l4.07,2.14v-86.14 M285.25,324.99l-1.29,86.14l3.18-2.14l2.82-84 M342.46,310.84      l-9,82.29l6.21-5.79l6.86-76.5 M119.93,261.2c0,0,78.75-36.5,122.03-38.4s95.14,13.41,95.14,13.41s-48.43-23.08-84-25.01      s-129.99,50.07-129.99,50.07 M232.11,143.7c4.71-4.71,43.21-7.68,34.6-8.41s-44.46,2.63-44.46,2.63v71.72      C222.25,209.63,227.39,148.41,232.11,143.7z M103.67,249c0,0,4.92-18.64,38.44-56.44s74.57-51.3,74.57-51.3      s-52.29,12.3-81.17,44.44c-22.93,25.51-29.6,51.28-31.38,60.82c-0.46,2.48-0.59,3.87-0.59,3.87 M258.67,113.7      c0,0-3.96-3.8-15.42-2c-11.46,1.8-15.68,15.99-15.68,15.99C235.03,112.96,258.67,113.7,258.67,113.7z M267.96,33.99      c8.85-1.29-3.71,9-4.99,9.95c-1.29,0.95-1.71,5.05,7.29,0s27-2.66,27-2.66s-17.57-3.86-21.84-8.14s21.84-6.22,21.84-6.22      s-16.71-7.5-36.9,2.36s-28.5,41.3-28.5,41.3C233.92,59.87,259.11,35.27,267.96,33.99z"/></g><g><path class="st6" d="M99.14,268.27c-6.45,0-6.43-10,0-10C105.59,258.27,105.58,268.27,99.14,268.27z M90.46,274.31      c-1.93,0-1.93,3,0,3C92.39,277.31,92.4,274.31,90.46,274.31z M401.93,257.31c-6.43,0-6.45,10,0,10      C408.36,267.31,408.37,257.31,401.93,257.31z M394.21,273.84c-1.29,0-1.29,2,0,2C395.5,275.84,395.5,273.84,394.21,273.84z       M150.25,251.06c-5.79,0-5.8,9,0,9C156.04,260.06,156.05,251.06,150.25,251.06z M135.79,258.41c-1.29,0-1.29,2,0,2      C137.07,260.41,137.07,258.41,135.79,258.41z M130,399.13c-3.86,0-3.87,6,0,6C133.86,405.13,133.87,399.13,130,399.13z       M196.54,153.66c-5.79,0-5.8,9,0,9C202.33,162.66,202.34,153.66,196.54,153.66z M180.14,160.99c-2.57,0-2.58,4,0,4      C182.72,164.99,182.72,160.99,180.14,160.99z M243.79,115.13c-4.5,0-4.51,7,0,7C248.29,122.13,248.3,115.13,243.79,115.13z       M231.25,122.91c-1.93,0-1.93,3,0,3C233.18,125.91,233.18,122.91,231.25,122.91z"/></g><g class="st44"><path class="st6" d="M381.68,409.99c-5.16,0-5.15-8,0-8C386.83,401.99,386.83,409.99,381.68,409.99z M371.07,416.56      c-1.29,0-1.29,2,0,2C372.36,418.56,372.36,416.56,371.07,416.56z M262.11,432.45c-1.93,0-1.93,3,0,3      C264.04,435.45,264.04,432.45,262.11,432.45z M373,262.66c-4.5,0-4.51,7,0,7C377.5,269.66,377.51,262.66,373,262.66z       M360.46,270.45c-1.93,0-1.93,3,0,3C362.39,273.45,362.4,270.45,360.46,270.45z M274.64,199.52c-3.86,0-3.87,6,0,6      C278.5,205.52,278.51,199.52,274.64,199.52z M263.07,200.09c-0.64,0-0.64,1,0,1C263.71,201.09,263.72,200.09,263.07,200.09z"/></g></g></g></g></svg>