<?xml version="1.0" ?><svg xmlns="http://www.w3.org/2000/svg" xmlns:xlink="http://www.w3.org/1999/xlink" version="1.1" viewBox="0 0 512 512" style="enable-background:new 0 0 512 512;" xml:space="preserve"><style type="text/css">
	.st0{fill:#231A15;}
	.st1{fill:#FFE000;}
	.st2{fill:#BCA100;}
	.st3{fill:#FC0000;}
	.st4{fill:#AA0000;}
	.st5{fill:#F94343;}
	.st6{fill:#FFFFFF;}
	.st7{fill:#A58E07;}
	.st8{opacity:0.44;}
	.st9{fill:#756204;}
	.st10{opacity:0.64;}
	.st11{opacity:0.38;}
	.st12{fill:#5D5004;}
	.st13{fill:#B7A100;}
	.st14{fill:#1D4DFC;}
	.st15{fill:#143CAF;}
	.st16{opacity:0.59;}
	.st17{opacity:0.52;}
	.st18{fill:#FF7F1F;}
	.st19{fill:#C4570C;}
	.st20{fill:#B29904;}
	.st21{fill:#87720A;}
	.st22{fill:#DDDDDD;}
	.st23{opacity:0.51;}
	.st24{fill:#878787;}
	.st25{fill:#727272;}
	.st26{opacity:0.33;}
	.st27{opacity:0.46;}
	.st28{fill:#25CBF2;}
	.st29{fill:#0A8FA5;}
	.st30{opacity:0.58;}
	.st31{fill:#04889E;}
	.st32{fill:#035A63;}
	.st33{opacity:0.65;}
	.st34{opacity:0.39;}
	.st35{fill:#AB0000;}
	.st36{fill:#1987A1;}
	.st37{fill:#3F1F0A;}
	.st38{fill:#4DEEFF;}
	.st39{fill:#21B9C1;}
	.st40{fill:#BBF9FF;}
	.st41{fill:#64ACAF;}
	.st42{fill:#089FB7;}
	.st43{opacity:0.47;}
	.st44{opacity:0.42;}
	.st45{fill:#DBF7FC;}
	.st46{fill:#B2E7ED;}
	.st47{fill:#0FA2BA;}
	.st48{opacity:0.54;}
	.st49{fill:#8E7716;}
	.st50{fill:#191401;}
	.st51{fill:#382E02;}
	.st52{fill:#605106;}
	.st53{fill:#AFACA0;}
	.st54{fill:#BC0404;}
	.st55{fill:#750000;}
	.st56{fill:#A08B0D;}
	.st57{fill:#5B4C05;}
	.st58{opacity:0.4;}
	.st59{opacity:0.5;}
	.st60{fill:#FF8383;}
	.st61{fill:#FFF0A6;}
	.st62{fill:#E2C227;}
	.st63{fill:#AA9205;}
	.st64{fill:#FFEA71;}
	.st65{opacity:0.22;}
	.st66{fill:#B19B00;}
	.st67{fill:#1989A4;}
	.st68{fill:#13A0B7;}
	.st69{fill:#C4A805;}
	.st70{fill:#FFF3A9;}
	.st71{fill:#846E03;}
	.st72{fill:#2D2502;}
	.st73{opacity:0.36;}
	.st74{fill:#4DD307;}
	.st75{fill:#328402;}
	.st76{fill:#97FF5A;}
	.st77{fill:#7A6500;}
	.st78{fill:#246001;}
	.st79{fill:#359100;}
	.st80{fill:#968022;}
	.st81{fill:#4F420B;}
	.st82{fill:#FFED83;}
	.st83{fill:#BAA335;}
	.st84{fill:#8D0991;}
	.st85{fill:#4B044F;}
	.st86{fill:#CE15CE;}
	.st87{fill:#897502;}
	.st88{fill:#493D01;}
	.st89{fill:#C9C9C9;}
	.st90{fill:#2D280E;}
	.st91{fill:#378C06;}
	.st92{fill:#183A03;}
	.st93{fill:#94FF55;}
	.st94{fill:#2E7F04;}
	.st95{fill:#63AB39;}
	.st96{fill:#AA5F04;}
	.st97{fill:#633502;}
	.st98{fill:#EF9014;}
	.st99{fill:#A05A07;}
	.st100{fill:#05616B;}
	.st101{fill:#033335;}
	.st102{fill:#0E94AA;}
	.st103{fill:#035D66;}
	.st104{opacity:0.27;}
	.st105{opacity:0.43;}
	.st106{fill:#FFF203;}
	.st107{fill:#FFA300;}
	.st108{fill:#2B3030;}
	.st109{opacity:0.28;}
	.st110{fill:#FCD17A;}
	.st111{fill:#AF853A;}
	.st112{opacity:0.31;}
	.st113{fill:#B641FF;}
	.st114{fill:#700FBC;}
	.st115{fill:#F2D0B1;}
	.st116{fill:#AF835F;}
	.st117{fill:#C17540;}
	.st118{fill:#F2BA94;}
	.st119{fill:#592909;}
	.st120{fill:#2B1204;}
	.st121{fill:#894818;}
	.st122{fill:#512609;}
	.st123{fill:#FF7F15;}
	.st124{fill:#A04A0A;}
	.st125{fill:#B7865E;}
	.st126{fill:#70350E;}
	.st127{fill:#3A1805;}
	.st128{fill:#C1521B;}
	.st129{fill:#FFC7AE;}
	.st130{fill:#FF717F;}
	.st131{fill:#6E2F0F;}
	.st132{fill:#AC8675;}
	.st133{opacity:0.25;}
	.st134{opacity:0.32;}
	.st135{fill:#FFFCC5;}
	.st136{fill:#D1CA78;}
	.st137{fill:#D37733;}
	.st138{fill:#A04F18;}
	.st139{fill:#0ABFBA;}
	.st140{fill:#057F79;}
	.st141{fill:#15F9F9;}
	.st142{fill:#09B2AD;}
	.st143{fill:#B2B2B2;}
	.st144{fill:#FFF755;}
	.st145{fill:#BCB121;}
	.st146{fill:#F90368;}
	.st147{opacity:0.49;}
	.st148{fill:#B50857;}
	.st149{fill:#FF76B4;}
	.st150{fill:#F23091;}
	.st151{fill:#FFF800;}
	.st152{fill:#C9BF05;}
	.st153{fill:#FF8500;}
	.st154{fill:#A35507;}
	.st155{fill:#AA6E50;}
	.st156{fill:#723C25;}
	.st157{fill:#EAD4B9;}
	.st158{fill:#AA8D6F;}
	.st159{fill:#B7A8A5;}
	.st160{fill:#84726F;}
	.st161{fill:#77645F;}
	.st162{fill:#51403C;}
	.st163{fill:#EABBA7;}
	.st164{fill:#BC7F69;}
	.st165{fill:#7C5039;}
	.st166{fill:#442619;}
	.st167{fill:#B7AE04;}
	.st168{fill:#BAB108;}
	.st169{fill:#7A7105;}
	.st170{fill:#352B23;}
	.st171{fill:#050403;}
	.st172{fill:#706255;}
	.st173{fill:#44382E;}
	.st174{fill:#634319;}
	.st175{fill:#35210A;}
	.st176{fill:#2D1C08;}
	.st177{fill:#0A0601;}
	.st178{fill:#9E7443;}
	.st179{fill:#704D2A;}
	.st180{fill:#D8A73A;}
	.st181{fill:#A0741C;}
	.st182{fill:#3F2F28;}
	.st183{fill:#211410;}
	.st184{fill:#FF326C;}
	.st185{fill:#BC0749;}
	.st186{fill:#68390E;}
	.st187{fill:#A5632D;}
	.st188{fill:#3D1E05;}
	.st189{fill:#331A06;}
	.st190{fill:#110801;}
	.st191{fill:#160A02;}
	.st192{fill:#663514;}
	.st193{opacity:0.29;}
	.st194{fill:#FC001F;}
	.st195{fill:#AF021F;}
	.st196{fill:#C48622;}
	.st197{fill:#8C5910;}
	.st198{fill:#846D64;}
	.st199{fill:#513B35;}
	.st200{fill:#5B4842;}
	.st201{fill:#332522;}
	.st202{fill:#47332C;}
	.st203{fill:#543E38;}
	.st204{fill:#1E1412;}
	.st205{fill:#604C43;}
	.st206{fill:#D3896C;}
	.st207{fill:#FF001F;}
	.st208{fill:#AF0824;}
	.st209{fill:#A37462;}
	.st210{fill:#5E3E34;}
	.st211{fill:#874A38;}
	.st212{fill:#4C2218;}
	.st213{fill:#5B2B20;}
	.st214{fill:#210C09;}
	.st215{fill:#99001A;}
	.st216{fill:#A08A07;}
	.st217{fill:#A08904;}
	.st218{fill:#5B4C02;}
	.st219{fill:#CECAB7;}
	.st220{fill:#727068;}
	.st221{fill:#42403A;}
	.st222{fill:#B2B0A6;}
	.st223{fill:#726F62;}
	.st224{fill:#6B4F45;}
	.st225{fill:#3A261F;}
	.st226{fill:#777468;}
	.st227{fill:#474436;}
	.st228{fill:#B78B7D;}
	.st229{fill:#845A4E;}
	.st230{fill:#3A372D;}
	.st231{fill:#43CFFF;}
	.st232{fill:#13A0BC;}
</style><g id="_x33_1"><g><path class="st0" d="M270.11,465.61c-2.43,0-4.87-0.17-7.3-0.57h-18.48c-18.99,2.51-32.48-3.54-40.09-18.01    c-3.7-7.04-7.68-18.49-11.85-34.08c-0.92-0.28-1.83-0.57-2.75-0.86c-13.4,7.33-23.27,10.94-30.78,11.29    c-0.28,0.02-0.56,0.04-0.84,0.04h-0.48c-0.04,0-0.08,0-0.12,0l-33.63,0c-0.04,0-0.08,0-0.12,0l-0.07,0c-0.08,0-0.19,0-0.28,0    c-3.07-0.08-5.83-0.75-8.21-2c-12.54-6.59-38.62-20.31-31.1-48.58c2.11-7.93,7.18-19.5,15.1-34.45    c-5.91-10.35-10.63-21.29-14.1-32.66c-41.5-11.17-49.42-20.81-51.56-28.82c-3.65-13.68-11.24-42.16,14.65-55.78    c7.64-4.02,20.42-8.35,38.06-12.9c2.04-6.16,4.46-12.21,7.23-18.08c-24.23-37.82-23.61-50.65-19.67-58.16    c5.66-10.76,16.19-30.79,36.69-32.29c0.06,0,0.12-0.01,0.17-0.01c1.38-0.09,2.79-0.1,4.2-0.02h29.8    c3.71-0.22,7.57,0.19,11.46,1.23c5.65,1.5,12.88,4.39,22.03,8.8c3.39-1.39,6.82-2.67,10.28-3.82c2.23-8.61,5.3-19.24,8.9-28.55    c6.4-16.51,12.87-24.84,20.96-27l3.97-1.03c1.32-0.33,2.64-0.64,3.98-0.94l0.17-0.04c0.71-0.16,1.36-0.29,2.01-0.42l0.18-0.04    c1.55-0.31,3.07-0.57,4.53-0.78c0.02,0,0.08-0.01,0.11-0.02c0.72-0.1,1.5-0.2,2.28-0.29c0.01,0,0.01,0,0.02,0    c4.49-0.5,8.54-0.5,12.35-0.01h21.48c22.55-2.45,33.35,8.52,38.45,18.21c3.88,7.37,8.04,19.51,12.41,36.16    c26.66-14.95,36.72-13.82,42.98-10.53c1.75,0.92,3.65,1.93,5.64,3.05c12.8-5.55,21.59-6.48,28.11-3.05    c12.54,6.59,38.62,20.3,31.09,48.58c-2.25,8.45-7.84,20.99-16.64,37.34c5.53,9.28,10.11,19.08,13.66,29.24    c43.17,11.36,51.36,21.19,53.53,29.35l0,0c3.65,13.68,11.24,42.16-14.65,55.78c-7.36,3.87-19.52,8.04-36.2,12.41    c-2.05,7.12-4.6,14.11-7.62,20.88c22.75,36.13,22.04,48.53,18.2,55.83c-6.59,12.53-20.31,38.61-48.57,31.09    c-2.52-0.67-5.33-1.61-8.5-2.84c-7.65,4.24-16.27,5.23-25.25,2.84c-4.32-1.15-9.55-3.1-15.9-5.95    c-5.89,2.71-11.92,5.07-18.03,7.04c-10.97,39.75-20.41,47.39-28.25,49.48C286.14,463.7,278.14,465.61,270.11,465.61z     M263.66,445.03c0.62,0,1.24,0.06,1.87,0.18c6.5,1.24,14.66-0.63,22.52-2.71c2.53-2.11,8.82-12.96,16.08-40.79    c0.9-3.44,3.55-6.14,6.97-7.1c8.33-2.35,16.54-5.52,24.42-9.45c2.74-1.37,5.96-1.4,8.73-0.09c7.15,3.38,12.82,5.64,16.86,6.71    c5.01,1.34,8.82,0.56,12.75-2.59c2.89-2.31,6.81-2.84,10.21-1.37c4.37,1.89,8,3.22,10.79,3.96c10.69,2.85,17.23-5.01,25.45-20.55    c0.17-3.38-3.72-15.77-20-40.85c-1.91-2.95-2.14-6.68-0.59-9.84c4.35-8.89,7.76-18.28,10.14-27.89c0.89-3.59,3.69-6.4,7.28-7.3    c22.53-5.63,32.8-9.73,37.45-12.17c9.78-5.15,9.27-15.36,4.79-32.36c-2.24-2.71-14.05-9.42-44.56-17.04    c-3.39-0.85-6.09-3.4-7.13-6.74c-3.8-12.25-9.28-23.94-16.29-34.77c-2-3.09-2.14-7.04-0.36-10.27    c9.37-16.96,15.63-30.45,17.63-37.98c2.84-10.68-5-17.23-20.53-25.44c-1.06,0-5.21,0.31-15.57,5.34c-3.11,1.51-6.78,1.3-9.7-0.54    c-2.84-1.79-5.84-3.41-8.48-4.8c-1.48-0.02-9.21,0.63-31.86,14.33c-2.44,1.48-5.4,1.84-8.12,1c-1.62-0.5-2.95-0.89-4.19-1.23    c-3.51-0.96-6.21-3.75-7.07-7.29c-4.72-19.46-9.36-34.06-13.07-41.11c-2.53-4.81-6.59-9.07-19.01-7.6    c-0.39,0.05-0.78,0.07-1.18,0.07h-22.73c-0.49,0-0.98-0.04-1.46-0.11c-2.28-0.34-4.97-0.34-7.98-0.01c-0.01,0-0.02,0-0.02,0    c-0.57,0.06-1.14,0.14-1.71,0.22c-1.15,0.17-2.32,0.37-3.52,0.61l-0.16,0.03c-0.52,0.11-1.05,0.21-1.57,0.33l-0.16,0.03    c-1.21,0.27-2.36,0.54-3.48,0.82l-3.13,0.81c-2.8,2.32-9.74,14.64-17.54,46.61c-0.85,3.47-3.48,6.22-6.9,7.23    c-5.97,1.75-11.91,3.93-17.64,6.49c-2.73,1.22-5.86,1.15-8.54-0.19c-12.2-6.1-18.92-8.49-22.42-9.42c-1.89-0.5-3.67-0.7-5.29-0.58    c-0.31,0.02-0.62,0.03-0.93,0.02h-30.21c-0.23,0-0.46-0.01-0.69-0.02c-0.64-0.04-1.28-0.04-1.9,0c-0.06,0-0.12,0.01-0.17,0.01    c-8.47,0.74-14.54,10.76-20.01,21.12c-0.19,3.54,4,16.62,21.53,43.19c1.99,3.02,2.2,6.89,0.53,10.11    c-4.18,8.06-7.58,16.56-10.12,25.27c-1,3.42-3.74,6.06-7.21,6.91c-18.38,4.53-32.24,8.99-39.01,12.56    c-9.78,5.15-9.27,15.36-4.79,32.36c2.18,2.63,13.57,9.16,42.9,16.62c3.52,0.89,6.27,3.62,7.2,7.13    c3.55,13.37,9.05,26.13,16.37,37.94c1.89,3.05,2,6.89,0.28,10.05c-10.85,19.94-14.71,30.07-16.04,35.07    c-2.84,10.67,5,17.22,20.52,25.43h33.49c0.04,0,0.07,0,0.11,0l0.1,0c0.08,0,0.15-0.01,0.23-0.01c1.66-0.04,8.45-0.94,25.9-10.9    c2.53-1.45,5.56-1.71,8.31-0.74c3.69,1.31,7.45,2.48,11.18,3.46c3.51,0.93,6.25,3.68,7.14,7.2c5.37,21.11,9.29,30.84,11.63,35.29    c2.63,4.99,6.9,9.34,20.29,7.43c0.47-0.07,0.94-0.1,1.42-0.1h19.7C263.45,445.03,263.56,445.03,263.66,445.03z M123.61,403.39    L123.61,403.39L123.61,403.39z M52.46,270.95C52.46,270.95,52.46,270.95,52.46,270.95L52.46,270.95z M459.54,241.04L459.54,241.04    C459.54,241.04,459.54,241.04,459.54,241.04z M91.73,140.49L91.73,140.49L91.73,140.49z M388.39,108.6    C388.39,108.6,388.39,108.6,388.39,108.6C388.39,108.6,388.39,108.6,388.39,108.6z M354.63,108.6    C354.63,108.6,354.63,108.6,354.63,108.6L354.63,108.6z M224.17,69.33 M256,348.08c-0.7,0-1.4-0.07-2.08-0.22    c-41.8-8.88-72.15-46.36-72.15-89.1s30.34-80.22,72.15-89.1c1.37-0.29,2.79-0.29,4.16,0c41.8,8.88,72.15,46.36,72.15,89.1    c0,1.39-0.04,2.83-0.11,4.4c-0.02,0.35-0.04,0.69-0.07,1.04l-0.03,0.39c-0.06,0.98-0.13,1.96-0.22,2.93    c-0.04,0.46-0.1,0.91-0.15,1.36l-0.04,0.32c-0.1,0.89-0.21,1.77-0.34,2.65c-0.08,0.57-0.17,1.15-0.27,1.72    c-0.14,0.86-0.29,1.71-0.46,2.55c-0.11,0.57-0.22,1.14-0.34,1.7c-0.18,0.86-0.38,1.71-0.59,2.56l-0.09,0.37    c-0.1,0.41-0.2,0.82-0.31,1.23c-0.25,0.93-0.51,1.85-0.79,2.76l-0.1,0.36c-0.09,0.32-0.18,0.64-0.28,0.95    c-0.42,1.35-0.87,2.67-1.33,3.93c-0.09,0.25-0.19,0.51-0.3,0.77l-0.09,0.22c-0.37,0.97-0.74,1.93-1.14,2.88    c-0.17,0.4-0.34,0.79-0.52,1.19l-0.17,0.37c-0.33,0.75-0.66,1.5-1.01,2.24c-0.27,0.57-0.55,1.12-0.82,1.67    c-0.34,0.67-0.68,1.35-1.04,2.03c-0.3,0.56-0.6,1.12-0.92,1.69c-0.36,0.64-0.73,1.28-1.1,1.92c-0.34,0.57-0.67,1.12-1.01,1.67    c-0.39,0.62-0.78,1.23-1.18,1.84l-0.2,0.31c-0.29,0.44-0.58,0.88-0.88,1.32c-0.35,0.5-0.7,1-1.06,1.49l-0.52,0.73    c-0.27,0.38-0.54,0.76-0.82,1.13c-0.76,1.01-1.56,2.02-2.37,3.02c-0.37,0.45-0.75,0.89-1.13,1.33l-0.53,0.61    c-0.33,0.38-0.65,0.76-0.99,1.14c-0.47,0.52-0.95,1.03-1.43,1.54l-0.29,0.3c-0.35,0.38-0.71,0.75-1.07,1.12    c-0.53,0.54-1.08,1.08-1.64,1.62c-0.42,0.4-0.83,0.8-1.26,1.2c-0.57,0.53-1.15,1.06-1.74,1.59c-0.41,0.37-0.83,0.72-1.24,1.08    c-0.62,0.53-1.24,1.06-1.88,1.57c-0.29,0.24-0.58,0.46-0.87,0.69l-0.45,0.35c-0.63,0.5-1.27,0.99-1.92,1.47    c-0.18,0.13-0.37,0.27-0.56,0.4l-0.15,0.1c-2.63,1.91-5.41,3.69-8.24,5.31l-0.25,0.14c-0.24,0.14-0.47,0.27-0.71,0.41    c-0.8,0.45-1.62,0.88-2.44,1.3l-0.23,0.12c-0.31,0.16-0.62,0.32-0.93,0.48c-0.81,0.4-1.62,0.79-2.44,1.17    c-0.41,0.19-0.82,0.37-1.22,0.55c-0.84,0.37-1.68,0.73-2.53,1.08c-0.34,0.14-0.66,0.26-0.98,0.39l-0.2,0.08    c-0.89,0.35-1.78,0.69-2.68,1.01c-0.24,0.08-0.45,0.16-0.67,0.23l-0.27,0.09c-3.51,1.21-7.07,2.19-10.56,2.94    C257.4,348.01,256.7,348.08,256,348.08z M256,189.7c-31.55,7.71-54.23,36.42-54.23,69.07c0,32.65,22.68,61.35,54.22,69.06    c2.04-0.5,4.1-1.11,6.15-1.81l0.76-0.26c0.68-0.24,1.37-0.51,2.07-0.78l0.93-0.37c0.64-0.26,1.3-0.54,1.95-0.83    c0.31-0.14,0.63-0.28,0.95-0.43c0.64-0.29,1.28-0.6,1.92-0.92c0.21-0.11,0.43-0.22,0.64-0.33l0.26-0.14    c0.64-0.33,1.28-0.66,1.91-1.01l0.74-0.42c2.22-1.27,4.38-2.66,6.44-4.15l0.55-0.39c0.5-0.37,0.99-0.75,1.47-1.13l0.5-0.39    c0.19-0.15,0.38-0.29,0.56-0.44c0.49-0.4,0.98-0.81,1.46-1.23c0.33-0.28,0.66-0.56,0.98-0.85c0.46-0.4,0.91-0.82,1.36-1.24    c0.33-0.31,0.66-0.62,0.98-0.94c0.43-0.42,0.86-0.84,1.28-1.26c0.28-0.28,0.54-0.56,0.8-0.84l0.3-0.31    c0.36-0.38,0.73-0.77,1.08-1.16c0.23-0.26,0.45-0.52,0.68-0.78l0.63-0.73c0.26-0.3,0.52-0.59,0.77-0.9    c0.64-0.78,1.26-1.57,1.86-2.36c0.17-0.23,0.34-0.46,0.5-0.69l0.61-0.85c0.26-0.36,0.52-0.71,0.77-1.08    c0.21-0.3,0.41-0.62,0.61-0.93l0.23-0.35c0.31-0.48,0.62-0.95,0.92-1.43c0.27-0.43,0.53-0.87,0.79-1.32    c0.28-0.48,0.57-0.98,0.85-1.48c0.24-0.44,0.48-0.87,0.72-1.32c0.28-0.53,0.55-1.06,0.81-1.59c0.22-0.44,0.44-0.87,0.64-1.31    c0.27-0.57,0.53-1.16,0.79-1.74l0.2-0.45c0.11-0.25,0.23-0.5,0.33-0.76c0.31-0.74,0.6-1.49,0.88-2.24    c0.07-0.18,0.14-0.36,0.21-0.54l0.09-0.23c0.36-0.98,0.71-2,1.04-3.06c0.05-0.15,0.09-0.3,0.13-0.45l0.17-0.58    c0.21-0.71,0.42-1.42,0.61-2.15c0.07-0.27,0.14-0.54,0.2-0.81l0.1-0.44c0.16-0.66,0.32-1.32,0.46-1.99    c0.09-0.44,0.18-0.88,0.27-1.33c0.13-0.66,0.25-1.32,0.36-1.98c0.07-0.44,0.14-0.89,0.21-1.35c0.1-0.68,0.18-1.37,0.26-2.06    l0.04-0.34c0.04-0.32,0.07-0.64,0.11-0.96c0.07-0.75,0.12-1.52,0.17-2.28l0.04-0.57c0.01-0.18,0.03-0.36,0.04-0.55    c0.06-1.24,0.09-2.37,0.09-3.44C310.23,226.11,287.55,197.41,256,189.7z"/></g><g><g><path class="st72" d="M468.88,237.67c-2.64-9.9-32.86-18.9-51.65-23.59c-4.12-13.29-10.03-25.8-17.45-37.24     c7.42-13.45,15.78-29.88,18.54-40.24c5.33-20.01-12.83-30.19-26.08-37.15c-9.39-4.94-38.09,12.51-54.02,23.09     c-8.08-3.89-16.57-7.08-25.37-9.5c-3.68-15.17-8.81-33.66-13.94-43.41c-6.52-12.39-17.89-14.19-29.04-12.87h-22.73l2.04,7.28     c-8.07,9.81-15.02,34.45-18.74,49.7c-12.72,3.73-24.76,9.08-35.86,15.83c-13.6-7.54-30.53-16.2-41.11-19.02     c-3.09-0.82-5.94-1.08-8.59-0.89l0,0h-33.75l2.24,21.04l6.21-0.07c-1.17,2.05-2.25,4.08-3.26,6     c-4.82,9.16,11.67,36.71,22.31,52.83c-4.45,8.58-8.09,17.64-10.84,27.08c-14.73,3.63-31.98,8.53-41.28,13.42     c-18.32,9.64-13.5,29.89-9.64,44.36c2.56,9.61,31.09,18.37,49.95,23.16c3.85,14.51,9.81,28.18,17.54,40.64     c-6.98,12.83-14.36,27.67-16.92,37.28c-1.29,4.86-1.19,9.14-0.12,12.93l-0.01,0l-3.73,25.07h33.78c0.06,0,0.13,0,0.19,0h0.48     v-0.01c10.76-0.25,30.7-11.78,44.74-20.82c9.94,5.23,20.53,9.38,31.61,12.31c3.51,13.8,7.99,28.97,12.47,37.48     c0.57,1.08,1.17,2.07,1.81,2.99l-5,9.68h20.01l0,0c9.02,1.71,19.23-0.81,27.53-3.03c9.25-2.47,17.71-28.98,22.61-47.78     c15.1-4.25,29.24-10.81,42.04-19.24c12.63,6.84,27.04,13.96,36.43,16.46c20.01,5.33,30.19-12.83,37.15-26.08     c4.58-8.72-10.13-34.1-20.73-50.42c4.62-9.45,8.28-19.45,10.86-29.88c14.36-3.59,30.72-8.31,39.68-13.03     C477.56,272.39,472.74,252.14,468.88,237.67z M272.87,339.86c-44.72,0-81.1-36.38-81.1-81.1s36.38-81.1,81.1-81.1     s81.1,36.38,81.1,81.1S317.59,339.86,272.87,339.86z"/></g><g><path class="st52" d="M435.13,237.67c-2.64-9.9-32.86-18.9-51.65-23.59c-4.12-13.29-10.03-25.8-17.45-37.24     c7.42-13.45,15.78-29.88,18.54-40.24c5.33-20.01-12.83-30.19-26.08-37.15c-9.39-4.94-38.09,12.51-54.02,23.09     c-8.08-3.89-16.57-7.08-25.37-9.5c-3.68-15.17-8.81-33.66-13.94-43.41c-9.64-18.32-29.89-13.5-44.36-9.64     c-10.28,2.74-19.59,35.21-24.11,53.75c-12.72,3.73-24.76,9.08-35.86,15.83c-13.6-7.54-30.53-16.2-41.11-19.02     c-20.01-5.33-30.19,12.83-37.15,26.08c-4.82,9.16,11.67,36.71,22.31,52.83c-4.45,8.58-8.09,17.64-10.84,27.08     c-14.73,3.63-31.98,8.53-41.28,13.42c-18.32,9.64-13.5,29.89-9.64,44.36c2.56,9.61,31.09,18.37,49.95,23.16     c3.85,14.51,9.81,28.18,17.54,40.64c-6.98,12.83-14.36,27.67-16.92,37.28c-5.33,20.01,12.83,30.19,26.08,37.15     c8.51,4.48,32.9-9.45,49.25-19.97c9.94,5.23,20.53,9.38,31.61,12.31c3.51,13.8,7.99,28.97,12.47,37.48     c9.64,18.32,29.89,13.5,44.36,9.64c9.25-2.47,17.71-28.98,22.61-47.78c15.1-4.25,29.24-10.81,42.04-19.24     c12.63,6.84,27.04,13.96,36.43,16.46c20.01,5.33,30.19-12.83,37.15-26.08c4.58-8.72-10.13-34.1-20.73-50.42     c4.62-9.45,8.28-19.45,10.86-29.88c14.36-3.59,30.72-8.31,39.68-13.03C443.81,272.39,438.99,252.14,435.13,237.67z      M158.02,258.76c0-44.72,36.38-81.1,81.1-81.1s81.1,36.38,81.1,81.1s-36.38,81.1-81.1,81.1S158.02,303.48,158.02,258.76z"/></g><g class="st73"><path class="st1" d="M257.45,452.01c-14.46,3.86-34.71,8.68-44.36-9.64c-4.48-8.51-8.96-23.68-12.47-37.48     c-11.08-2.92-21.67-7.08-31.61-12.31c-16.35,10.52-40.73,24.45-49.25,19.97c-13.25-6.97-31.41-17.14-26.08-37.15     c2.56-9.61,9.94-24.44,16.92-37.28c-7.72-12.46-13.68-26.12-17.54-40.64c-18.86-4.8-47.38-13.55-49.95-23.16     c-3.86-14.46-8.68-34.71,9.64-44.36c9.3-4.89,26.55-9.79,41.28-13.42c2.75-9.44,6.4-18.5,10.84-27.08     c-10.63-16.12-27.12-43.67-22.31-52.83c6.97-13.25,17.14-31.41,37.15-26.08c10.58,2.82,27.5,11.48,41.11,19.02     c11.1-6.75,23.14-12.1,35.86-15.83c4.52-18.54,13.83-51.01,24.11-53.75c9.63-2.57,21.83-5.56,31.75-1.86     c-4.97,3.42-14.26,12.88-17.04,36.94c-3.86,33.38-0.96,41.1-36.64,58.46c-35.68,17.36-72.32,54-61.71,122.46     s89.18,78.11,101.96,94.5c11.31,14.5-0.2,61.42,28.35,70.08C264.34,446.68,260.95,451.07,257.45,452.01z M340.65,214.28     c-32.76-54.96-101.53-36.62-101.53-36.62c44.72,0,81.1,36.38,81.1,81.1c0,38.93-27.58,71.53-64.23,79.32l0,0.01     C339.82,343.41,373.41,269.24,340.65,214.28z"/></g></g></g></svg>